<?xml version="1.0" standalone="no"?>
<!DOCTYPE svg PUBLIC "-//W3C//DTD SVG 20010904//EN"
 "http://www.w3.org/TR/2001/REC-SVG-20010904/DTD/svg10.dtd">
<svg version="1.0" xmlns="http://www.w3.org/2000/svg"
 width="500.000000pt" height="500.000000pt" viewBox="0 0 500.000000 500.000000"
 preserveAspectRatio="xMidYMid meet">
<metadata>
Created by potrace 1.14, written by Peter Selinger 2001-2017
</metadata>
<g transform="translate(0.000000,500.000000) scale(0.100000,-0.100000)"
fill="#000000" stroke="none">
<path d="M1950 4080 c-65 -12 -102 -46 -121 -112 -20 -70 32 -105 165 -114 47
-4 102 -12 123 -19 46 -16 63 -6 63 37 0 45 -27 99 -73 146 -57 59 -94 74
-157 62z"/>
<path d="M2476 3929 c-52 -19 -118 -76 -142 -121 -15 -28 -22 -58 -23 -96 -1
-18 -17 -29 -83 -60 -239 -111 -502 -341 -727 -636 -117 -153 -227 -345 -265
-461 -47 -147 -39 -357 20 -545 13 -41 24 -77 24 -80 0 -3 -15 -11 -32 -18
-40 -15 -65 -36 -101 -83 -83 -109 -66 -303 34 -394 114 -103 353 -157 468
-105 l43 20 67 -44 c99 -65 149 -91 255 -130 279 -105 581 -131 819 -71 114
29 277 108 360 174 112 89 212 197 284 306 65 98 165 293 204 400 18 50 34 91
35 93 0 1 14 -4 30 -13 108 -56 264 57 264 193 0 56 -62 173 -119 224 -44 40
-50 50 -50 84 1 53 -25 178 -62 298 -29 95 -30 99 -14 133 21 44 22 91 1 131
-9 17 -52 65 -95 108 -103 99 -111 119 -125 319 -6 76 -16 106 -50 152 -70 94
-177 125 -436 128 -207 1 -253 10 -373 72 -82 43 -142 49 -211 22z m-84 -558
c16 -43 82 -124 125 -154 40 -28 195 -76 230 -71 10 2 37 5 60 9 23 3 79 21
125 40 45 19 98 35 117 35 52 0 147 -56 200 -119 124 -150 241 -241 308 -241
15 0 24 -7 28 -22 28 -123 33 -160 33 -238 0 -107 -17 -197 -63 -329 -62 -179
-172 -429 -220 -501 -166 -250 -520 -471 -754 -471 -100 0 -188 15 -271 48
-249 98 -512 287 -637 457 -64 87 -102 176 -148 346 -2 8 -15 53 -28 100 -52
183 -4 359 167 615 183 273 377 431 615 500 94 27 101 27 113 -4z"/>
<path d="M1607 2532 c-15 -2 -31 -11 -35 -20 -8 -15 -15 -147 -14 -252 1 -161
0 -159 30 -174 35 -18 147 -18 193 0 42 17 69 59 69 108 0 48 -23 102 -49 115
-20 11 -20 12 5 59 44 81 13 144 -80 160 -53 10 -72 11 -119 4z m123 -92 c0
-4 3 -15 6 -23 8 -22 -31 -57 -64 -57 -29 0 -28 -3 -23 82 2 28 81 27 81 -2z
m3 -190 c19 -15 24 -27 21 -47 -8 -44 -44 -58 -100 -39 -9 3 -12 55 -5 99 2
15 59 6 84 -13z"/>
<path d="M1875 2520 c-19 -21 -21 -83 -9 -190 4 -30 8 -93 9 -140 1 -47 3 -88
4 -91 3 -15 63 -30 108 -28 97 5 163 42 147 83 -7 17 -39 30 -53 22 -5 -3 -32
-9 -60 -12 -38 -4 -51 -2 -52 8 -1 7 -3 32 -4 56 -2 23 -6 68 -9 100 -3 31 -9
89 -12 127 -3 39 -7 71 -9 73 -11 12 -46 7 -60 -8z"/>
<path d="M2273 2530 c-51 -7 -88 -39 -104 -88 -7 -20 -13 -99 -15 -176 -1 -78
-3 -149 -4 -160 -1 -10 2 -21 5 -25 8 -7 209 -4 241 4 40 9 41 58 1 71 -12 4
-50 6 -84 5 l-63 -2 0 49 0 49 67 2 c74 2 93 12 93 47 0 31 -6 33 -89 35 l-71
2 0 36 c0 58 15 70 89 72 47 2 69 7 83 21 17 17 18 17 20 -4 2 -34 6 -159 7
-276 1 -100 2 -103 27 -114 23 -11 29 -10 46 12 16 20 19 38 18 114 -1 50 -1
97 -1 105 1 8 25 -24 54 -72 59 -97 100 -147 122 -147 8 0 23 12 32 27 26 39
32 363 7 387 -46 47 -76 -3 -73 -123 1 -51 0 -94 -3 -96 -2 -2 -32 44 -67 104
-82 143 -110 167 -153 132 -19 -16 -24 -16 -33 -5 -12 16 -91 23 -152 14z"/>
<path d="M2805 2531 c-19 -8 -20 -18 -19 -226 0 -176 3 -218 15 -226 21 -13
112 -1 166 22 62 26 91 53 118 111 41 89 27 202 -34 265 -38 40 -198 75 -246
54z m153 -107 c58 -24 79 -124 38 -186 -17 -26 -84 -68 -108 -68 -11 0 -13 28
-14 140 l0 139 25 -6 c15 -3 41 -12 59 -19z"/>
<path d="M3275 2513 c-30 -31 -41 -53 -90 -186 -37 -101 -62 -190 -67 -242 -3
-28 -1 -30 32 -28 39 2 55 19 72 78 6 22 15 44 19 49 8 9 99 15 99 6 4 -52 15
-88 32 -102 39 -34 77 -17 73 32 -12 133 -47 311 -71 358 -28 58 -63 70 -99
35z m54 -204 c1 -34 -1 -36 -34 -37 -19 -1 -35 0 -35 2 0 12 35 104 44 115 9
11 12 9 17 -15 4 -16 7 -45 8 -65z"/>
</g>
</svg>
